# xmcd
#
# Track frame offsets:
# 150
# 18018
# 38613
# 64598
# 79150
# 102470
# 118805
# 137983
# 154915
# 176970
# 199585
# 225040
#
# Disc length: 3293 seconds
#
# Revision: 2
# Processed by: cddbd v1.5.1PL2 Copyright (c) Steve Scherf et al.
# Submitted via: Audio-CD-Archiv 4.00.530
#
DISCID=950cdb0c
DTITLE=Ahlqvist, Pepe  H.A.R.P. - Hard Time
DYEAR=1991
DGENRE=blues
TTITLE0=Hard Time
TTITLE1=Mean Ol' Tamburine
TTITLE2=No Man's Land
TTITLE3=Big Chief
TTITLE4=Don't Walk Away
TTITLE5=Determination
TTITLE6=People Change
TTITLE7=Who's Gettin' What
TTITLE8=Across The Border
TTITLE9=Nobody's Fool
TTITLE10=Thrill Is Gone
TTITLE11=Blues Tor...
EXTD=
EXTT0=
EXTT1=
EXTT2=
EXTT3=
EXTT4=
EXTT5=
EXTT6=
EXTT7=
EXTT8=
EXTT9=
EXTT10=
EXTT11=
PLAYORDER=
